<svg width="85" height="14" viewBox="0 0 85 14" fill="none" xmlns="http://www.w3.org/2000/svg">
<path d="M14.454 9.616H0.54V7.672H14.454V9.616Z" fill="#44C697"/>
<path d="M31.0656 13H27.9156L24.2796 8.194L23.3436 9.31V13H20.7876V0.993999H23.3436V6.358L27.5916 0.993999H30.7416L25.9716 6.628L31.0656 13ZM34.787 13H32.231V0.993999H37.847C39.107 0.993999 40.091 1.366 40.799 2.11C41.519 2.842 41.879 3.76 41.879 4.864C41.879 5.956 41.519 6.874 40.799 7.618C40.079 8.362 39.095 8.734 37.847 8.734H34.787V13ZM37.505 6.484C38.021 6.484 38.441 6.34 38.765 6.052C39.101 5.752 39.269 5.356 39.269 4.864C39.269 4.372 39.101 3.982 38.765 3.694C38.441 3.394 38.021 3.244 37.505 3.244H34.787V6.484H37.505ZM46.0194 13H43.4634V0.993999H46.0194V13ZM54.2168 13.216C52.3928 13.216 50.8688 12.64 49.6448 11.488C48.4328 10.324 47.8268 8.83 47.8268 7.006C47.8268 5.182 48.4328 3.694 49.6448 2.542C50.8688 1.378 52.3928 0.795999 54.2168 0.795999C56.4608 0.795999 58.1348 1.774 59.2388 3.73L57.0428 4.81C56.7788 4.306 56.3888 3.892 55.8728 3.568C55.3688 3.232 54.8168 3.064 54.2168 3.064C53.1248 3.064 52.2248 3.436 51.5168 4.18C50.8088 4.924 50.4548 5.866 50.4548 7.006C50.4548 8.146 50.8088 9.088 51.5168 9.832C52.2248 10.576 53.1248 10.948 54.2168 10.948C54.8168 10.948 55.3688 10.786 55.8728 10.462C56.3888 10.138 56.7788 9.718 57.0428 9.202L59.2388 10.264C58.0988 12.232 56.4248 13.216 54.2168 13.216ZM59.9172 13.216V10.948C60.5652 10.948 61.0632 10.69 61.4112 10.174C61.7592 9.646 62.0232 8.632 62.2032 7.132L62.9052 0.993999H71.4372V13H68.8632V3.244H65.2092L64.7412 7.312C64.5972 8.524 64.3812 9.532 64.0932 10.336C63.8172 11.128 63.4572 11.728 63.0132 12.136C62.5812 12.544 62.1252 12.826 61.6452 12.982C61.1652 13.138 60.5892 13.216 59.9172 13.216ZM84.9992 13H82.0832L81.3452 10.966H76.1972L75.4412 13H72.5252L77.1692 0.993999H80.3732L84.9992 13ZM80.6432 8.716L78.7712 3.55L76.8992 8.716H80.6432Z" fill="white"/>
</svg>
